# xmcd
#
# Track frame offsets:
#	150
#	15919
#	31174
#	52686
#	75987
#	102276
#	118325
#	135024
#	152768
#	165082
#	177844
#	192075
#
# Disc length: 3099 seconds
#
# Revision: 1
# Processed by: cddbd v1.5.2PL0 Copyright (c) Steve Scherf et al.
# Submitted via: audiograbber 1.83.01
#
DISCID=740c190c
DTITLE=Crosby, Stills, Nash and Young - CSNY 1974: The Acoustic Set
DYEAR=2014
DGENRE=
TTITLE0=Only Love Can Break Your Heart (Live 1974 - Second Set) - Crosby, Still
TTITLE0=s, Nash and Young
TTITLE1=Change Partners (Live 1974 - Second Set) - Crosby, Stills, Nash and Young
TTITLE2=The Lee Shore (Live 1974 - Second Set) - Crosby, Stills, Nash and Young
TTITLE3=Johnny's Garden (Live 1974 - First Set) - Crosby, Stills, Nash and Young
TTITLE4=Guinevere (Live 1974 - Second Set) - Crosby, Stills, Nash and Young
TTITLE5=Our House (Live 1974 - Second Set) - Crosby, Stills, Nash and Young
TTITLE6=Prison Song (Live 1974 - Second Set) - Crosby, Stills, Nash and Young
TTITLE7=Old Man (Live 1974 - Second Set) - Crosby, Stills, Nash and Young
TTITLE8=Blackbird (Live 1974 - Second Set) - Crosby, Stills, Nash and Young
TTITLE9=Hawaiian Sunrise (Live 1974 - Second Set) - Crosby, Stills, Nash and Youn
TTITLE9=g
TTITLE10=Teach Your Children (Live 1974 - Second Set) - Crosby, Stills, Nash and 
TTITLE10=Young
TTITLE11=Suite: Judy Blue Eyes (Live 1974 - Second Set) - Crosby, Stills, Nash 
TTITLE11=& Young
EXTD=Starbucks (US) Promo-CD 
EXTT0=
EXTT1=
EXTT2=
EXTT3=
EXTT4=
EXTT5=
EXTT6=
EXTT7=
EXTT8=
EXTT9=
EXTT10=
EXTT11=
PLAYORDER=
